# Exported from ProBuilder
# http://www.procore3d.com/probuilder
# 2/13/2019 11:05:41 AM

mtllib ./Icosphere.mtl
o Icosphere

g Icosphere
v 7.608573 0.9380651 3.47
v 7.636902 0.903 3.500902
v 7.586902 0.9339017 3.52
v 7.636902 0.903 3.500902
v 7.641066 0.853 3.522573
v 7.606 0.8839017 3.550902
v 7.636902 0.903 3.500902
v 7.606 0.8839017 3.550902
v 7.586902 0.9339017 3.52
v 7.586902 0.9339017 3.52
v 7.606 0.8839017 3.550902
v 7.556 0.9055731 3.555065
v 7.608573 0.9380651 3.47
v 7.586902 0.9339017 3.52
v 7.556 0.9529999 3.47
v 7.586902 0.9339017 3.52
v 7.556 0.9055731 3.555065
v 7.525099 0.9339017 3.52
v 7.586902 0.9339017 3.52
v 7.525099 0.9339017 3.52
v 7.556 0.9529999 3.47
v 7.556 0.9529999 3.47
v 7.525099 0.9339017 3.52
v 7.503427 0.9380651 3.47
v 7.608573 0.9380651 3.47
v 7.556 0.9529999 3.47
v 7.586902 0.9339017 3.42
v 7.556 0.9529999 3.47
v 7.503427 0.9380651 3.47
v 7.525099 0.9339017 3.42
v 7.556 0.9529999 3.47
v 7.525099 0.9339017 3.42
v 7.586902 0.9339017 3.42
v 7.586902 0.9339017 3.42
v 7.525099 0.9339017 3.42
v 7.556 0.9055731 3.384935
v 7.608573 0.9380651 3.47
v 7.586902 0.9339017 3.42
v 7.636902 0.903 3.439098
v 7.586902 0.9339017 3.42
v 7.556 0.9055731 3.384935
v 7.606 0.8839017 3.389098
v 7.586902 0.9339017 3.42
v 7.606 0.8839017 3.389098
v 7.636902 0.903 3.439098
v 7.636902 0.903 3.439098
v 7.606 0.8839017 3.389098
v 7.641066 0.853 3.417427
v 7.608573 0.9380651 3.47
v 7.636902 0.903 3.439098
v 7.636902 0.903 3.500902
v 7.636902 0.903 3.439098
v 7.641066 0.853 3.417427
v 7.656 0.853 3.47
v 7.636902 0.903 3.439098
v 7.656 0.853 3.47
v 7.636902 0.903 3.500902
v 7.636902 0.903 3.500902
v 7.656 0.853 3.47
v 7.641066 0.853 3.522573
v 7.503427 0.9380651 3.47
v 7.525099 0.9339017 3.52
v 7.475099 0.903 3.500902
v 7.525099 0.9339017 3.52
v 7.556 0.9055731 3.555065
v 7.506001 0.8839017 3.550902
v 7.525099 0.9339017 3.52
v 7.506001 0.8839017 3.550902
v 7.475099 0.903 3.500902
v 7.475099 0.903 3.500902
v 7.506001 0.8839017 3.550902
v 7.470935 0.853 3.522573
v 7.556 0.9055731 3.555065
v 7.606 0.8839017 3.550902
v 7.556 0.853 3.57
v 7.606 0.8839017 3.550902
v 7.641066 0.853 3.522573
v 7.606 0.8220983 3.550902
v 7.606 0.8839017 3.550902
v 7.606 0.8220983 3.550902
v 7.556 0.853 3.57
v 7.556 0.853 3.57
v 7.606 0.8220983 3.550902
v 7.556 0.8004268 3.555065
v 7.641066 0.853 3.522573
v 7.656 0.853 3.47
v 7.636902 0.803 3.500902
v 7.656 0.853 3.47
v 7.641066 0.853 3.417427
v 7.636902 0.803 3.439098
v 7.656 0.853 3.47
v 7.636902 0.803 3.439098
v 7.636902 0.803 3.500902
v 7.636902 0.803 3.500902
v 7.636902 0.803 3.439098
v 7.608573 0.7679349 3.47
v 7.641066 0.853 3.417427
v 7.606 0.8839017 3.389098
v 7.606 0.8220983 3.389098
v 7.606 0.8839017 3.389098
v 7.556 0.9055731 3.384935
v 7.556 0.853 3.37
v 7.606 0.8839017 3.389098
v 7.556 0.853 3.37
v 7.606 0.8220983 3.389098
v 7.606 0.8220983 3.389098
v 7.556 0.853 3.37
v 7.556 0.8004268 3.384935
v 7.556 0.9055731 3.384935
v 7.525099 0.9339017 3.42
v 7.506001 0.8839017 3.389098
v 7.525099 0.9339017 3.42
v 7.503427 0.9380651 3.47
v 7.475099 0.903 3.439098
v 7.525099 0.9339017 3.42
v 7.475099 0.903 3.439098
v 7.506001 0.8839017 3.389098
v 7.506001 0.8839017 3.389098
v 7.475099 0.903 3.439098
v 7.470935 0.853 3.417427
v 7.503427 0.7679349 3.47
v 7.475099 0.803 3.500902
v 7.525099 0.7720983 3.52
v 7.475099 0.803 3.500902
v 7.470935 0.853 3.522573
v 7.506001 0.8220983 3.550902
v 7.475099 0.803 3.500902
v 7.506001 0.8220983 3.550902
v 7.525099 0.7720983 3.52
v 7.525099 0.7720983 3.52
v 7.506001 0.8220983 3.550902
v 7.556 0.8004268 3.555065
v 7.503427 0.7679349 3.47
v 7.525099 0.7720983 3.52
v 7.556 0.753 3.47
v 7.525099 0.7720983 3.52
v 7.556 0.8004268 3.555065
v 7.586902 0.7720983 3.52
v 7.525099 0.7720983 3.52
v 7.586902 0.7720983 3.52
v 7.556 0.753 3.47
v 7.556 0.753 3.47
v 7.586902 0.7720983 3.52
v 7.608573 0.7679349 3.47
v 7.503427 0.7679349 3.47
v 7.556 0.753 3.47
v 7.525099 0.7720983 3.42
v 7.556 0.753 3.47
v 7.608573 0.7679349 3.47
v 7.586902 0.7720983 3.42
v 7.556 0.753 3.47
v 7.586902 0.7720983 3.42
v 7.525099 0.7720983 3.42
v 7.525099 0.7720983 3.42
v 7.586902 0.7720983 3.42
v 7.556 0.8004268 3.384935
v 7.503427 0.7679349 3.47
v 7.525099 0.7720983 3.42
v 7.475099 0.803 3.439098
v 7.525099 0.7720983 3.42
v 7.556 0.8004268 3.384935
v 7.506001 0.8220983 3.389098
v 7.525099 0.7720983 3.42
v 7.506001 0.8220983 3.389098
v 7.475099 0.803 3.439098
v 7.475099 0.803 3.439098
v 7.506001 0.8220983 3.389098
v 7.470935 0.853 3.417427
v 7.503427 0.7679349 3.47
v 7.475099 0.803 3.439098
v 7.475099 0.803 3.500902
v 7.475099 0.803 3.439098
v 7.470935 0.853 3.417427
v 7.456 0.853 3.47
v 7.475099 0.803 3.439098
v 7.456 0.853 3.47
v 7.475099 0.803 3.500902
v 7.475099 0.803 3.500902
v 7.456 0.853 3.47
v 7.470935 0.853 3.522573
v 7.556 0.8004268 3.555065
v 7.506001 0.8220983 3.550902
v 7.556 0.853 3.57
v 7.506001 0.8220983 3.550902
v 7.470935 0.853 3.522573
v 7.506001 0.8839017 3.550902
v 7.506001 0.8220983 3.550902
v 7.506001 0.8839017 3.550902
v 7.556 0.853 3.57
v 7.556 0.853 3.57
v 7.506001 0.8839017 3.550902
v 7.556 0.9055731 3.555065
v 7.608573 0.7679349 3.47
v 7.586902 0.7720983 3.52
v 7.636902 0.803 3.500902
v 7.586902 0.7720983 3.52
v 7.556 0.8004268 3.555065
v 7.606 0.8220983 3.550902
v 7.586902 0.7720983 3.52
v 7.606 0.8220983 3.550902
v 7.636902 0.803 3.500902
v 7.636902 0.803 3.500902
v 7.606 0.8220983 3.550902
v 7.641066 0.853 3.522573
v 7.556 0.8004268 3.384935
v 7.586902 0.7720983 3.42
v 7.606 0.8220983 3.389098
v 7.586902 0.7720983 3.42
v 7.608573 0.7679349 3.47
v 7.636902 0.803 3.439098
v 7.586902 0.7720983 3.42
v 7.636902 0.803 3.439098
v 7.606 0.8220983 3.389098
v 7.606 0.8220983 3.389098
v 7.636902 0.803 3.439098
v 7.641066 0.853 3.417427
v 7.470935 0.853 3.417427
v 7.506001 0.8220983 3.389098
v 7.506001 0.8839017 3.389098
v 7.506001 0.8220983 3.389098
v 7.556 0.8004268 3.384935
v 7.556 0.853 3.37
v 7.506001 0.8220983 3.389098
v 7.556 0.853 3.37
v 7.506001 0.8839017 3.389098
v 7.506001 0.8839017 3.389098
v 7.556 0.853 3.37
v 7.556 0.9055731 3.384935
v 7.470935 0.853 3.522573
v 7.456 0.853 3.47
v 7.475099 0.903 3.500902
v 7.456 0.853 3.47
v 7.470935 0.853 3.417427
v 7.475099 0.903 3.439098
v 7.456 0.853 3.47
v 7.475099 0.903 3.439098
v 7.475099 0.903 3.500902
v 7.475099 0.903 3.500902
v 7.475099 0.903 3.439098
v 7.503427 0.9380651 3.47

vn 0.5831288 0.7487835 0.3150938
vn 0.5831288 0.7487835 0.3150938
vn 0.5831288 0.7487835 0.3150938
vn 0.7487835 0.3150937 0.5831289
vn 0.7487835 0.3150937 0.5831289
vn 0.7487835 0.3150937 0.5831289
vn 0.5773502 0.5773503 0.5773503
vn 0.5773502 0.5773503 0.5773503
vn 0.5773502 0.5773503 0.5773503
vn 0.3150938 0.5831288 0.7487835
vn 0.3150938 0.5831288 0.7487835
vn 0.3150938 0.5831288 0.7487835
vn 0.2680349 0.9435222 0.1947387
vn 0.2680349 0.9435222 0.1947387
vn 0.2680349 0.9435222 0.1947387
vn 0 0.7778675 0.6284284
vn 0 0.7778675 0.6284284
vn 0 0.7778675 0.6284284
vn 0 0.9341724 0.356822
vn 0 0.9341724 0.356822
vn 0 0.9341724 0.356822
vn -0.2680349 0.9435222 0.1947386
vn -0.2680349 0.9435222 0.1947386
vn -0.2680349 0.9435222 0.1947386
vn 0.2680349 0.9435222 -0.1947387
vn 0.2680349 0.9435222 -0.1947387
vn 0.2680349 0.9435222 -0.1947387
vn -0.2680349 0.9435222 -0.1947386
vn -0.2680349 0.9435222 -0.1947386
vn -0.2680349 0.9435222 -0.1947386
vn 0 0.9341724 -0.356822
vn 0 0.9341724 -0.356822
vn 0 0.9341724 -0.356822
vn 0 0.7778675 -0.6284284
vn 0 0.7778675 -0.6284284
vn 0 0.7778675 -0.6284284
vn 0.5831288 0.7487835 -0.3150938
vn 0.5831288 0.7487835 -0.3150938
vn 0.5831288 0.7487835 -0.3150938
vn 0.3150938 0.5831288 -0.7487835
vn 0.3150938 0.5831288 -0.7487835
vn 0.3150938 0.5831288 -0.7487835
vn 0.5773502 0.5773503 -0.5773503
vn 0.5773502 0.5773503 -0.5773503
vn 0.5773502 0.5773503 -0.5773503
vn 0.7487835 0.3150937 -0.5831289
vn 0.7487835 0.3150937 -0.5831289
vn 0.7487835 0.3150937 -0.5831289
vn 0.7778674 0.6284284 0
vn 0.7778674 0.6284284 0
vn 0.7778674 0.6284284 0
vn 0.9435222 0.1947386 -0.268035
vn 0.9435222 0.1947386 -0.268035
vn 0.9435222 0.1947386 -0.268035
vn 0.9341724 0.356822 0
vn 0.9341724 0.356822 0
vn 0.9341724 0.356822 0
vn 0.9435222 0.1947386 0.268035
vn 0.9435222 0.1947386 0.268035
vn 0.9435222 0.1947386 0.268035
vn -0.5831289 0.7487835 0.3150938
vn -0.5831289 0.7487835 0.3150938
vn -0.5831289 0.7487835 0.3150938
vn -0.3150938 0.5831288 0.7487835
vn -0.3150938 0.5831288 0.7487835
vn -0.3150938 0.5831288 0.7487835
vn -0.5773503 0.5773503 0.5773503
vn -0.5773503 0.5773503 0.5773503
vn -0.5773503 0.5773503 0.5773503
vn -0.7487835 0.3150939 0.5831288
vn -0.7487835 0.3150939 0.5831288
vn -0.7487835 0.3150939 0.5831288
vn 0.1947387 0.2680349 0.9435222
vn 0.1947387 0.2680349 0.9435222
vn 0.1947387 0.2680349 0.9435222
vn 0.6284284 0 0.7778675
vn 0.6284284 0 0.7778675
vn 0.6284284 0 0.7778675
vn 0.356822 0 0.9341724
vn 0.356822 0 0.9341724
vn 0.356822 0 0.9341724
vn 0.1947386 -0.2680349 0.9435223
vn 0.1947386 -0.2680349 0.9435223
vn 0.1947386 -0.2680349 0.9435223
vn 0.9435222 -0.1947386 0.268035
vn 0.9435222 -0.1947386 0.268035
vn 0.9435222 -0.1947386 0.268035
vn 0.9435222 -0.1947386 -0.268035
vn 0.9435222 -0.1947386 -0.268035
vn 0.9435222 -0.1947386 -0.268035
vn 0.9341723 -0.356822 0
vn 0.9341723 -0.356822 0
vn 0.9341723 -0.356822 0
vn 0.7778675 -0.6284284 0
vn 0.7778675 -0.6284284 0
vn 0.7778675 -0.6284284 0
vn 0.6284284 0 -0.7778675
vn 0.6284284 0 -0.7778675
vn 0.6284284 0 -0.7778675
vn 0.1947386 0.2680349 -0.9435222
vn 0.1947386 0.2680349 -0.9435222
vn 0.1947386 0.2680349 -0.9435222
vn 0.356822 0 -0.9341724
vn 0.356822 0 -0.9341724
vn 0.356822 0 -0.9341724
vn 0.1947387 -0.2680349 -0.9435222
vn 0.1947387 -0.2680349 -0.9435222
vn 0.1947387 -0.2680349 -0.9435222
vn -0.3150938 0.5831288 -0.7487835
vn -0.3150938 0.5831288 -0.7487835
vn -0.3150938 0.5831288 -0.7487835
vn -0.5831288 0.7487835 -0.3150938
vn -0.5831288 0.7487835 -0.3150938
vn -0.5831288 0.7487835 -0.3150938
vn -0.5773503 0.5773503 -0.5773503
vn -0.5773503 0.5773503 -0.5773503
vn -0.5773503 0.5773503 -0.5773503
vn -0.7487835 0.3150939 -0.5831288
vn -0.7487835 0.3150939 -0.5831288
vn -0.7487835 0.3150939 -0.5831288
vn -0.5831288 -0.7487835 0.3150939
vn -0.5831288 -0.7487835 0.3150939
vn -0.5831288 -0.7487835 0.3150939
vn -0.7487836 -0.3150939 0.5831288
vn -0.7487836 -0.3150939 0.5831288
vn -0.7487836 -0.3150939 0.5831288
vn -0.5773503 -0.5773503 0.5773503
vn -0.5773503 -0.5773503 0.5773503
vn -0.5773503 -0.5773503 0.5773503
vn -0.3150939 -0.5831289 0.7487835
vn -0.3150939 -0.5831289 0.7487835
vn -0.3150939 -0.5831289 0.7487835
vn -0.268035 -0.9435222 0.1947388
vn -0.268035 -0.9435222 0.1947388
vn -0.268035 -0.9435222 0.1947388
vn 0 -0.7778676 0.6284282
vn 0 -0.7778676 0.6284282
vn 0 -0.7778676 0.6284282
vn 0 -0.9341723 0.3568223
vn 0 -0.9341723 0.3568223
vn 0 -0.9341723 0.3568223
vn 0.268035 -0.9435221 0.1947388
vn 0.268035 -0.9435221 0.1947388
vn 0.268035 -0.9435221 0.1947388
vn -0.268035 -0.9435222 -0.1947388
vn -0.268035 -0.9435222 -0.1947388
vn -0.268035 -0.9435222 -0.1947388
vn 0.268035 -0.9435221 -0.1947388
vn 0.268035 -0.9435221 -0.1947388
vn 0.268035 -0.9435221 -0.1947388
vn 0 -0.9341723 -0.3568223
vn 0 -0.9341723 -0.3568223
vn 0 -0.9341723 -0.3568223
vn 0 -0.7778676 -0.6284282
vn 0 -0.7778676 -0.6284282
vn 0 -0.7778676 -0.6284282
vn -0.5831288 -0.7487835 -0.3150939
vn -0.5831288 -0.7487835 -0.3150939
vn -0.5831288 -0.7487835 -0.3150939
vn -0.3150939 -0.5831289 -0.7487835
vn -0.3150939 -0.5831289 -0.7487835
vn -0.3150939 -0.5831289 -0.7487835
vn -0.5773503 -0.5773503 -0.5773503
vn -0.5773503 -0.5773503 -0.5773503
vn -0.5773503 -0.5773503 -0.5773503
vn -0.7487836 -0.3150939 -0.5831288
vn -0.7487836 -0.3150939 -0.5831288
vn -0.7487836 -0.3150939 -0.5831288
vn -0.7778676 -0.6284283 0
vn -0.7778676 -0.6284283 0
vn -0.7778676 -0.6284283 0
vn -0.9435223 -0.1947388 -0.2680348
vn -0.9435223 -0.1947388 -0.2680348
vn -0.9435223 -0.1947388 -0.2680348
vn -0.9341723 -0.356822 0
vn -0.9341723 -0.356822 0
vn -0.9341723 -0.356822 0
vn -0.9435223 -0.1947388 0.2680348
vn -0.9435223 -0.1947388 0.2680348
vn -0.9435223 -0.1947388 0.2680348
vn -0.1947387 -0.2680349 0.9435222
vn -0.1947387 -0.2680349 0.9435222
vn -0.1947387 -0.2680349 0.9435222
vn -0.6284283 0 0.7778675
vn -0.6284283 0 0.7778675
vn -0.6284283 0 0.7778675
vn -0.356822 0 0.9341724
vn -0.356822 0 0.9341724
vn -0.356822 0 0.9341724
vn -0.1947386 0.2680349 0.9435222
vn -0.1947386 0.2680349 0.9435222
vn -0.1947386 0.2680349 0.9435222
vn 0.5831288 -0.7487835 0.3150939
vn 0.5831288 -0.7487835 0.3150939
vn 0.5831288 -0.7487835 0.3150939
vn 0.3150939 -0.5831289 0.7487835
vn 0.3150939 -0.5831289 0.7487835
vn 0.3150939 -0.5831289 0.7487835
vn 0.5773502 -0.5773503 0.5773502
vn 0.5773502 -0.5773503 0.5773502
vn 0.5773502 -0.5773503 0.5773502
vn 0.7487836 -0.3150937 0.5831288
vn 0.7487836 -0.3150937 0.5831288
vn 0.7487836 -0.3150937 0.5831288
vn 0.3150939 -0.5831289 -0.7487835
vn 0.3150939 -0.5831289 -0.7487835
vn 0.3150939 -0.5831289 -0.7487835
vn 0.5831288 -0.7487835 -0.3150939
vn 0.5831288 -0.7487835 -0.3150939
vn 0.5831288 -0.7487835 -0.3150939
vn 0.5773502 -0.5773503 -0.5773502
vn 0.5773502 -0.5773503 -0.5773502
vn 0.5773502 -0.5773503 -0.5773502
vn 0.7487835 -0.3150937 -0.5831288
vn 0.7487835 -0.3150937 -0.5831288
vn 0.7487835 -0.3150937 -0.5831288
vn -0.6284283 0 -0.7778675
vn -0.6284283 0 -0.7778675
vn -0.6284283 0 -0.7778675
vn -0.1947387 -0.2680349 -0.9435222
vn -0.1947387 -0.2680349 -0.9435222
vn -0.1947387 -0.2680349 -0.9435222
vn -0.356822 0 -0.9341724
vn -0.356822 0 -0.9341724
vn -0.356822 0 -0.9341724
vn -0.1947386 0.2680349 -0.9435222
vn -0.1947386 0.2680349 -0.9435222
vn -0.1947386 0.2680349 -0.9435222
vn -0.9435222 0.1947387 0.2680348
vn -0.9435222 0.1947387 0.2680348
vn -0.9435222 0.1947387 0.2680348
vn -0.9435222 0.1947387 -0.2680348
vn -0.9435222 0.1947387 -0.2680348
vn -0.9435222 0.1947387 -0.2680348
vn -0.9341724 0.356822 0
vn -0.9341724 0.356822 0
vn -0.9341724 0.356822 0
vn -0.7778676 0.6284283 0
vn -0.7778676 0.6284283 0
vn -0.7778676 0.6284283 0

vt -0.05257311 0
vt -0.0809017 0.0309017
vt -0.0309017 0.05
vt -0.0309017 0.05
vt -0.05257311 0
vt -0.0809017 0.0309017
vt 0.0809017 0.05
vt 0.05 0.0309017
vt 0.0309017 0.0809017
vt 0.0309017 0.0809017
vt 0.05 0.0309017
vt 0 0.05257311
vt -0.05257311 0
vt -0.0309017 0.05
vt 0 0
vt -0.0309017 0.05
vt 0 0.08506508
vt 0.0309017 0.05
vt -0.0309017 0.05
vt 0.0309017 0.05
vt 0 0
vt 0 0
vt 0.0309017 0.05
vt 0.05257311 0
vt -0.05257311 0
vt 0 0
vt -0.0309017 -0.05
vt 0 0
vt 0.05257311 0
vt 0.0309017 -0.05
vt 0 0
vt 0.0309017 -0.05
vt -0.0309017 -0.05
vt -0.0309017 -0.05
vt 0.0309017 -0.05
vt 0 -0.08506508
vt -0.05257311 0
vt -0.0309017 -0.05
vt -0.0809017 -0.0309017
vt -0.0309017 0.0809017
vt 0 0.05257311
vt -0.05 0.0309017
vt -0.0309017 0.0809017
vt -0.05 0.0309017
vt -0.0809017 0.05
vt 0.0309017 0.05
vt 0.0809017 0.0309017
vt 0.05257311 0
vt 0 0.08506508
vt 0.0309017 0.05
vt -0.0309017 0.05
vt 0.0309017 0.05
vt 0.05257311 0
vt 0 0
vt 0.0309017 0.05
vt 0 0
vt -0.0309017 0.05
vt -0.0309017 0.05
vt 0 0
vt -0.05257311 0
vt 0.05257311 0
vt 0.0309017 0.05
vt 0.0809017 0.0309017
vt -0.0309017 0.0809017
vt 0 0.05257311
vt -0.05 0.0309017
vt -0.0309017 0.0809017
vt -0.05 0.0309017
vt -0.0809017 0.05
vt 0.0309017 0.05
vt 0.0809017 0.0309017
vt 0.05257311 0
vt 0 0.05257311
vt 0.05 0.0309017
vt 0 0
vt 0.05 0.0309017
vt 0.08506508 0
vt 0.05 -0.0309017
vt 0.05 0.0309017
vt 0.05 -0.0309017
vt 0 0
vt 0 0
vt 0.05 -0.0309017
vt 0 -0.05257311
vt -0.05257311 0
vt 0 0
vt -0.0309017 -0.05
vt 0 0
vt 0.05257311 0
vt 0.0309017 -0.05
vt 0 0
vt 0.0309017 -0.05
vt -0.0309017 -0.05
vt -0.0309017 -0.05
vt 0.0309017 -0.05
vt 0 -0.08506508
vt -0.08506508 0
vt -0.05 0.0309017
vt -0.05 -0.0309017
vt -0.05 0.0309017
vt 0 0.05257311
vt 0 0
vt -0.05 0.0309017
vt 0 0
vt -0.05 -0.0309017
vt -0.05 -0.0309017
vt 0 0
vt 0 -0.05257311
vt 0 0.05257311
vt 0.0309017 0.0809017
vt 0.05 0.0309017
vt 0.0309017 -0.05
vt 0.05257311 0
vt 0.0809017 -0.0309017
vt 0.0309017 0.0809017
vt 0.0809017 0.05
vt 0.05 0.0309017
vt -0.0809017 0.0309017
vt -0.0309017 0.05
vt -0.05257311 0
vt -0.05257311 0
vt -0.0809017 0.0309017
vt -0.0309017 0.05
vt 0.0309017 -0.05
vt 0.05257311 0
vt 0.0809017 -0.0309017
vt -0.0809017 -0.05
vt -0.05 -0.0309017
vt -0.0309017 -0.0809017
vt -0.0309017 -0.0809017
vt -0.05 -0.0309017
vt 0 -0.05257311
vt -0.05257311 0
vt -0.0309017 0.05
vt 0 0
vt -0.0309017 0.05
vt 0 0.08506508
vt 0.0309017 0.05
vt -0.0309017 0.05
vt 0.0309017 0.05
vt 0 0
vt 0 0
vt 0.0309017 0.05
vt 0.05257311 0
vt -0.05257311 0
vt 0 0
vt -0.0309017 -0.05
vt 0 0
vt 0.05257311 0
vt 0.0309017 -0.05
vt 0 0
vt 0.0309017 -0.05
vt -0.0309017 -0.05
vt -0.0309017 -0.05
vt 0.0309017 -0.05
vt 0 -0.08506508
vt -0.05257311 0
vt -0.0309017 -0.05
vt -0.0809017 -0.0309017
vt 0.0309017 -0.0809017
vt 0 -0.05257311
vt 0.05 -0.0309017
vt 0.0309017 -0.0809017
vt 0.05 -0.0309017
vt 0.0809017 -0.05
vt -0.0309017 -0.05
vt -0.0809017 -0.0309017
vt -0.05257311 0
vt 0 -0.08506508
vt -0.0309017 -0.05
vt 0.0309017 -0.05
vt -0.0309017 -0.05
vt -0.05257311 0
vt 0 0
vt -0.0309017 -0.05
vt 0 0
vt 0.0309017 -0.05
vt 0.0309017 -0.05
vt 0 0
vt 0.05257311 0
vt 0 -0.05257311
vt -0.05 -0.0309017
vt 0 0
vt -0.05 -0.0309017
vt -0.08506508 0
vt -0.05 0.0309017
vt -0.05 -0.0309017
vt -0.05 0.0309017
vt 0 0
vt 0 0
vt -0.05 0.0309017
vt 0 0.05257311
vt 0.05257311 0
vt 0.0309017 0.05
vt 0.0809017 0.0309017
vt 0.0309017 -0.0809017
vt 0 -0.05257311
vt 0.05 -0.0309017
vt 0.0309017 -0.0809017
vt 0.05 -0.0309017
vt 0.0809017 -0.05
vt -0.0309017 -0.05
vt -0.0809017 -0.0309017
vt -0.05257311 0
vt 0 -0.05257311
vt -0.0309017 -0.0809017
vt -0.05 -0.0309017
vt 0.0309017 -0.05
vt 0.05257311 0
vt 0.0809017 -0.0309017
vt -0.0309017 -0.0809017
vt -0.0809017 -0.05
vt -0.05 -0.0309017
vt 0.0809017 -0.0309017
vt 0.0309017 -0.05
vt 0.05257311 0
vt 0.08506508 0
vt 0.05 -0.0309017
vt 0.05 0.0309017
vt 0.05 -0.0309017
vt 0 -0.05257311
vt 0 0
vt 0.05 -0.0309017
vt 0 0
vt 0.05 0.0309017
vt 0.05 0.0309017
vt 0 0
vt 0 0.05257311
vt 0.05257311 0
vt 0 0
vt 0.0309017 0.05
vt 0 0
vt -0.05257311 0
vt -0.0309017 0.05
vt 0 0
vt -0.0309017 0.05
vt 0.0309017 0.05
vt 0.0309017 0.05
vt -0.0309017 0.05
vt 0 0.08506508

g Icosphere
usemtl Default_Prototype
f 3/3/3 2/2/2 1/1/1
f 6/6/6 5/5/5 4/4/4
f 9/9/9 8/8/8 7/7/7
f 12/12/12 11/11/11 10/10/10
f 15/15/15 14/14/14 13/13/13
f 18/18/18 17/17/17 16/16/16
f 21/21/21 20/20/20 19/19/19
f 24/24/24 23/23/23 22/22/22
f 27/27/27 26/26/26 25/25/25
f 30/30/30 29/29/29 28/28/28
f 33/33/33 32/32/32 31/31/31
f 36/36/36 35/35/35 34/34/34
f 39/39/39 38/38/38 37/37/37
f 42/42/42 41/41/41 40/40/40
f 45/45/45 44/44/44 43/43/43
f 48/48/48 47/47/47 46/46/46
f 51/51/51 50/50/50 49/49/49
f 54/54/54 53/53/53 52/52/52
f 57/57/57 56/56/56 55/55/55
f 60/60/60 59/59/59 58/58/58
f 63/63/63 62/62/62 61/61/61
f 66/66/66 65/65/65 64/64/64
f 69/69/69 68/68/68 67/67/67
f 72/72/72 71/71/71 70/70/70
f 75/75/75 74/74/74 73/73/73
f 78/78/78 77/77/77 76/76/76
f 81/81/81 80/80/80 79/79/79
f 84/84/84 83/83/83 82/82/82
f 87/87/87 86/86/86 85/85/85
f 90/90/90 89/89/89 88/88/88
f 93/93/93 92/92/92 91/91/91
f 96/96/96 95/95/95 94/94/94
f 99/99/99 98/98/98 97/97/97
f 102/102/102 101/101/101 100/100/100
f 105/105/105 104/104/104 103/103/103
f 108/108/108 107/107/107 106/106/106
f 111/111/111 110/110/110 109/109/109
f 114/114/114 113/113/113 112/112/112
f 117/117/117 116/116/116 115/115/115
f 120/120/120 119/119/119 118/118/118
f 123/123/123 122/122/122 121/121/121
f 126/126/126 125/125/125 124/124/124
f 129/129/129 128/128/128 127/127/127
f 132/132/132 131/131/131 130/130/130
f 135/135/135 134/134/134 133/133/133
f 138/138/138 137/137/137 136/136/136
f 141/141/141 140/140/140 139/139/139
f 144/144/144 143/143/143 142/142/142
f 147/147/147 146/146/146 145/145/145
f 150/150/150 149/149/149 148/148/148
f 153/153/153 152/152/152 151/151/151
f 156/156/156 155/155/155 154/154/154
f 159/159/159 158/158/158 157/157/157
f 162/162/162 161/161/161 160/160/160
f 165/165/165 164/164/164 163/163/163
f 168/168/168 167/167/167 166/166/166
f 171/171/171 170/170/170 169/169/169
f 174/174/174 173/173/173 172/172/172
f 177/177/177 176/176/176 175/175/175
f 180/180/180 179/179/179 178/178/178
f 183/183/183 182/182/182 181/181/181
f 186/186/186 185/185/185 184/184/184
f 189/189/189 188/188/188 187/187/187
f 192/192/192 191/191/191 190/190/190
f 195/195/195 194/194/194 193/193/193
f 198/198/198 197/197/197 196/196/196
f 201/201/201 200/200/200 199/199/199
f 204/204/204 203/203/203 202/202/202
f 207/207/207 206/206/206 205/205/205
f 210/210/210 209/209/209 208/208/208
f 213/213/213 212/212/212 211/211/211
f 216/216/216 215/215/215 214/214/214
f 219/219/219 218/218/218 217/217/217
f 222/222/222 221/221/221 220/220/220
f 225/225/225 224/224/224 223/223/223
f 228/228/228 227/227/227 226/226/226
f 231/231/231 230/230/230 229/229/229
f 234/234/234 233/233/233 232/232/232
f 237/237/237 236/236/236 235/235/235
f 240/240/240 239/239/239 238/238/238

